/* XPM */
static char *task_list_xpm[] = {
/* width height num_colors chars_per_pixel */
"    16    16       16            1",
/* colors */
"` c None",
". c #808080",
"# c #000000",
"a c #ffffff",
"b c #c0c0c0",
"c c #800000",
"d c #000000",
"e c #000000",
"f c #000000",
"g c #000000",
"h c #000000",
"i c #000000",
"j c #000000",
"k c #000000",
"l c #000000",
"m c #000000",
/* pixels */
"````````````````",
"``````....``````",
"```..#abbb#..```",
"``.aa######aa#``",
"``.aaaaaaaaaa#``",
"``.aaaaaaaaca#``",
"``.aaaaaaacba#``",
"``.aaaaaacbba#``",
"``.aaaaac.baa#``",
"``.accaccbaaa#``",
"``.aacccbbaaa#``",
"``.aaacbbaaaa#``",
"``.aaabbaaaaa#``",
"``.aaaaaaaaaa#``",
"```##########```",
"````````````````"
};
