/* XPM */
static char *ToolBox_xpm[] = {
/* width height num_colors chars_per_pixel */
"   368    16      256            2",
/* colors */
"a6 c None",
"`` c #000000",
"`. c #800000",
"`# c #008000",
"`a c #808000",
"`b c #000080",
"`c c #800080",
"`d c #008080",
"`e c #c0c0c0",
"`f c #c0dcc0",
"`g c #a6caf0",
"`h c #040404",
"`i c #080808",
"`j c #0c0c0c",
"`k c #111111",
"`l c #161616",
"`m c #1c1c1c",
"`n c #222222",
"`o c #292929",
"`p c #555555",
"`q c #4d4d4d",
"`r c #424242",
"`s c #393939",
"`t c #ff7c80",
"`u c #ff5050",
"`v c #d60093",
"`w c #ccecff",
"`x c #efd6c6",
"`y c #e7e7d6",
"`z c #ada990",
"`A c #330000",
"`B c #660000",
"`C c #990000",
"`D c #cc0000",
"`E c #003300",
"`F c #333300",
"`G c #663300",
"`H c #993300",
"`I c #cc3300",
"`J c #ff3300",
"`K c #006600",
"`L c #336600",
"`M c #666600",
"`N c #996600",
"`O c #cc6600",
"`P c #ff6600",
"`Q c #009900",
"`R c #339900",
"`S c #669900",
"`T c #999900",
"`U c #cc9900",
"`V c #ff9900",
"`W c #00cc00",
"`X c #33cc00",
"`Y c #66cc00",
"`Z c #99cc00",
"`0 c #cccc00",
"`1 c #ffcc00",
"`2 c #66ff00",
"`3 c #99ff00",
"`4 c #ccff00",
"`5 c #000033",
"`6 c #330033",
"`7 c #660033",
"`8 c #990033",
".` c #cc0033",
".. c #ff0033",
".# c #003333",
".a c #333333",
".b c #663333",
".c c #993333",
".d c #cc3333",
".e c #ff3333",
".f c #006633",
".g c #336633",
".h c #666633",
".i c #996633",
".j c #cc6633",
".k c #ff6633",
".l c #009933",
".m c #339933",
".n c #669933",
".o c #999933",
".p c #cc9933",
".q c #ff9933",
".r c #00cc33",
".s c #33cc33",
".t c #66cc33",
".u c #99cc33",
".v c #cccc33",
".w c #ffcc33",
".x c #33ff33",
".y c #66ff33",
".z c #99ff33",
".A c #ccff33",
".B c #ffff33",
".C c #000066",
".D c #330066",
".E c #660066",
".F c #990066",
".G c #cc0066",
".H c #ff0066",
".I c #003366",
".J c #333366",
".K c #663366",
".L c #993366",
".M c #cc3366",
".N c #ff3366",
".O c #006666",
".P c #336666",
".Q c #666666",
".R c #996666",
".S c #cc6666",
".T c #009966",
".U c #339966",
".V c #669966",
".W c #999966",
".X c #cc9966",
".Y c #ff9966",
".Z c #00cc66",
".0 c #33cc66",
".1 c #99cc66",
".2 c #cccc66",
".3 c #ffcc66",
".4 c #00ff66",
".5 c #33ff66",
".6 c #99ff66",
".7 c #ccff66",
".8 c #ff00cc",
"#` c #cc00ff",
"#. c #009999",
"## c #993399",
"#a c #990099",
"#b c #cc0099",
"#c c #000099",
"#d c #333399",
"#e c #660099",
"#f c #cc3399",
"#g c #ff0099",
"#h c #006699",
"#i c #336699",
"#j c #663399",
"#k c #996699",
"#l c #cc6699",
"#m c #ff3399",
"#n c #339999",
"#o c #669999",
"#p c #999999",
"#q c #cc9999",
"#r c #ff9999",
"#s c #00cc99",
"#t c #33cc99",
"#u c #66cc66",
"#v c #99cc99",
"#w c #cccc99",
"#x c #ffcc99",
"#y c #00ff99",
"#z c #33ff99",
"#A c #66cc99",
"#B c #99ff99",
"#C c #ccff99",
"#D c #ffff99",
"#E c #0000cc",
"#F c #330099",
"#G c #6600cc",
"#H c #9900cc",
"#I c #cc00cc",
"#J c #003399",
"#K c #3333cc",
"#L c #6633cc",
"#M c #9933cc",
"#N c #cc33cc",
"#O c #ff33cc",
"#P c #0066cc",
"#Q c #3366cc",
"#R c #666699",
"#S c #9966cc",
"#T c #cc66cc",
"#U c #ff6699",
"#V c #0099cc",
"#W c #3399cc",
"#X c #6699cc",
"#Y c #9999cc",
"#Z c #cc99cc",
"#0 c #ff99cc",
"#1 c #00cccc",
"#2 c #33cccc",
"#3 c #66cccc",
"#4 c #99cccc",
"#5 c #cccccc",
"#6 c #ffcccc",
"#7 c #00ffcc",
"#8 c #33ffcc",
"a` c #66ff99",
"a. c #99ffcc",
"a# c #ccffcc",
"aa c #ffffcc",
"ab c #3300cc",
"ac c #6600ff",
"ad c #9900ff",
"ae c #0033cc",
"af c #3333ff",
"ag c #6633ff",
"ah c #9933ff",
"ai c #cc33ff",
"aj c #ff33ff",
"ak c #0066ff",
"al c #3366ff",
"am c #6666cc",
"an c #9966ff",
"ao c #cc66ff",
"ap c #ff66cc",
"aq c #0099ff",
"ar c #3399ff",
"as c #6699ff",
"at c #9999ff",
"au c #cc99ff",
"av c #ff99ff",
"aw c #00ccff",
"ax c #33ccff",
"ay c #66ccff",
"az c #99ccff",
"aA c #ccccff",
"aB c #ffccff",
"aC c #33ffff",
"aD c #66ffcc",
"aE c #99ffff",
"aF c #ccffff",
"aG c #ff6666",
"aH c #66ff66",
"aI c #ffff66",
"aJ c #6666ff",
"aK c #ff66ff",
"aL c #66ffff",
"aM c #a50021",
"aN c #5f5f5f",
"aO c #777777",
"aP c #868686",
"aQ c #969696",
"aR c #cbcbcb",
"aS c #b2b2b2",
"aT c #d7d7d7",
"aU c #dddddd",
"aV c #e3e3e3",
"aW c #eaeaea",
"aX c #f1f1f1",
"aY c #f8f8f8",
"aZ c #fffbf0",
"a0 c #a0a0a4",
"a1 c #808080",
"a2 c #ff0000",
"a3 c #00ff00",
"a4 c #ffff00",
"a5 c #0000ff",
"a7 c #00ffff",
"a8 c #ffffff",
/* pixels */
"a6a6a6a6a6a6a6a6a6a6a6a6a6a6a6a6a6a6a6a6a6a6a6a6a6a6a6a6.ka6a6a6a6a6a6a6a6a6a6a6a6a6a6a6a6a6a6a6a6#Y#Y#Y#Ya6a6a6a6a6a6a6a6a6a6a6a6a6a6a6a6a6a6a6a6a6a6a6a6a6a6a6a6a6a6a6a6a6a6a6a6a6a6a6a6a6a6a6a6a6a6a6a6a6a6a6a6a6a6a6a6a6a6a6a6a6a6a6a6a6a6a6a6a6a6a6a6a6a6a6a6a6a6a6a6a6a6a6a6a6a6a6a6a6a6a6a6a6a6a6a6a6a6a6a6a6a6a6a6a6a6a6a6a6a6a6a6a6a6a6a6a6a6a6a6a6a6a6a6a6a6`K`K`K`K`h`#a6a6a6a6a6a6a6a6a6a6a6a6a6a6a6a6a6a6a6a6a6a6a6a6a6a6a6a6a6a6a6a6a6a6a6a6a6a6a6a6a6a6a6a6a6a6a6a6a6a6a6a6a6a6a6a6`g#Y#Y#Y#Y#Y#Y#Y#Yam#Ya6a6a6a6a6a6a6a6a6a6a6a6a6a6a6a6a6a6a6a6a6a6a6a6a6#Y#Y#Y#Y#Y#Y#Yam#Ya6a6a6a6a6a6#Y#Y#Y#Y#Y#Y#Yam#Ya6a6a6a6a6a6a6a6a6a6a6a6a6a6a6a6a6a6a6a6a6#X#X#X#X#R#Y#Y#Y#Y#Yam#Ya6a6a6a6a6a6a6a6a6a6a6a6a6a6a6a6a6a6a6a6a6a6a6a6a6a6a6a6a6a6a6a6a6a6",
"a6a6a6a6a6`ha6a6a6a6a6a6a6a6a6a6a6a6a6a6a6a6a6a6a6a6.k.Y.q.ka6a6`J`Ja6`J`J`Ja6a6a6a6a6a6....a6a6a6#Ya8a8#Y#Ya6a6a6a6a6a6a6a6a6a6a6a6a6a6a6a6a6a6a6a6a6.k.k.ka6a6a6a6a6a6a6a6a6a6a6a6a6a6a6a6a6a6a6a6a6a6a6a6a6a6a6a6a6a6a6a6a6a6a6a6a6a6a6a6a6a6#P#P#P#P#P#Pa6a6#Y#Y#Y#Y#Y#Yam#Ya6a6a6a6a6a6a6a6#P#P#P#P#P#P#P#P#P#P#P#P#P#P#Pa6a6a6a6a6a6a6a6a6a6a6a6a6a6a6a6a6a6a6`K`#.m.s.m`#`#a6a6a6a6a6a6a6a6a6a6a6a6a6a6a6a6a6a6a6a6a6a6a6a6a6a6a6a6a6a6a6a6a6a6a6a6a6a6a6a6a6a6a6a6a6a6a6a6a6a6a6a6a6a6a6a6#Ya8a8a8a8aXaXaXaWam`g#Ya6a6a6a6a6a6a6a6a6a6a6a6a6a6a6a6a6a6a6a6a6a6a6a6#YaXaWaWaVaUaWam#Y#Ya6a6a6a6a6#Ya8a8a8a8aYaXam#Y#Ya6a6a6a6a6a6#Y#Y#Y#Y#Y#Y#Yama6a6a6a6a6a6#Xa8`ra8#R`w`waA`g`gam`g#Ya6a6a6a6a6a6a6a6a6a6a6a6a6a6a6a6a6a6a6`g#Y#Y#Y#Y#Y#R#Ya6a6a6a6a6a6",
"a6a6a6a6a6`h`ha6a6a6a6a6a6a6a6a6.k.k.ka6a6a6a6a6.k.Y#6a8#x.ka6a6`J`J.k`J`J#Y#Y#Y#Y#Y#Y#Y`u#r.ea6a6#Ya8#Ya8#Ya6a6a6a6a6a6a6a6a6a6a6.ka6a6a6a6a6a6a6.k#r`x.3.ka6a6a6a6a6a6`g`g`g`g`g#Ra6a6a6a6a6a6a6`J`J`Ja6a6a6a6a6a6a6a6a6a6a6a6a6a6a6a6a6a6a6a6#Paq#P#P#P#Pa6a6#Ya8a8a8a8aYamaz#Ya6a6a6a6a6a6a6#P#P#P#P#P#P#P#P#P#P#P#P#P#P#Pa6a6a6a6a6a6a6a6a6a6a6a6a6a6a6a6a6a6a6`#`#`K`#.t.t`#`Ka6a6a6a6a6a6a6#Y#Y#Y#Y#Y#Yam#Ya6a6a6a6a6a6a6a6a6a6a6a6a6a6a6a6a6a6.ma6a6a6a6a6a6a6a6a6`U`U`Ua6a6a6a6a6a6a6a6a6#Ya8a8a8a8a8a8aYaYamaz#X#Ya6a6`U.p.p.p`Ua6a6a6a6a6a6a6a6a6a6a6a6a6a6#Y#Y#Y#Y#Y#Y#Yam`gamamama6a6a6a6a6#Ya8a8a8a8aYaXamar#Xa6a6a6a6a6a6#Ya8a8aXaXaXaUam#Ya6a6a6a6a6#X`r`r`r#R#Y#Y#Yam`hamamama6a6a6a6a6a6a6a6a6a6a6a6a6a6a6a6a6`U.p#Ya8a8a8a8aX#R#R.p.pa6a6a6a6",
"a6a6a6a6a6`h`h`ha6a6a6a6a6a6a6a6.k.2`x#x#r.ka6.k#raYa8a8aZ.q.ka6a6`J`J`J`xaWaWaVaUaT`g#Y`t`x#r..a6#Y#Y#Y#Y#Ya6a6#Y#Y#Y#Yam#Y#Ya6a6.Y#x.Y.ka6a6.k.Y`xa8a8`x.qa6a6a6a6a6.p#Ya8a8a8aY#R#Ra6a6a6a6a6a6`J`J`J`Ja6a6a6a6a6a6a6a6a6a6a6a6a6a6a6a6a6a6a6#P#P#Pa6#P#Pa6a6#Ya8a8a8aYaYamamama6a6a6a6a6a6a6#P#P#P#P#P#P#P#P#P#P#P#P#P#P#Pa6a6a6a6a6a6a6a6a6a6a6a6a6a6a6a6a6#Y#Y.V#Y#Y#Y.t.6`##Y#Y#Y#Y#Ya6a6a6#Ya8a8a8a8aYamaz#Ya6a6a6a6a6a6a6a6a6a6a6a6a6a6a6a6a6.m`#`Ka6a6a6a6a6`U.v.v.v.v`U`U.v.v.v.va6a6a6#Ya8a8a8aX#Y#X#YaXamamamama6a6.paaaaaa.p.p.p.p.p.pa6a6a6a6a6a6a6a6a6#Ya8a8a8a8a8aYamay#Xas#Ra6a6a6a6a6#Ya8a8a8aYaXaXamamama6a6a6a6a6a6#Xa8a8a8a8aY`wam#X#Xa6a6a6a6#Xa8`ra8#Ra8aYaXam#W#Y`hama6a6a6a6a6a6a6a6a6a6a6a6a6a6a6a6a6.paa#Ya8a8a8aXaX`g#R`y.pa6a6a6a6",
"a6a6a6a6a6`h`h`h`ha6a6a6a6a6a6a6.q.t`faXaYaY#6#Y`waWaXa8a8#x.ka6`J`J`J`J#xa8a8a8#r`t#q.d`u#x#r.ea6#Y#Ya6a6a6a6a6a6#Ya8aYamaz#Y#Ya6.t`ya8aX#6.Y#qaVaXaYa8a8.Y.ka6a6a6.paa#Ya8a8a8aXaz#R.p.pa6a6a6a6`J`J`J`J`Ja6a6a6a6a6a6`J`Ja6a6a6a6a6a6a6a6a6a6#P#P#P#P#P#Pa6a6#Ya8a8aYaYaXaA`gama6a6a6a6a6a6a6#Pa8a8a8a8#Pa8a8a8a8a8aYaYaX#Pa6a6a6a6a6a6a6a6a6a6`l`paN`o`Fa6a6#YaVaXa8a8`#`#`#`#`faVaUaU#Ra6a6a6#Ya8a8a8aYaYamamama6a6a6a6a6a6a6a6a6a6a6a6a6a6at`K`#.m.t.m`Ka6a6a6a6.vaa#D#Daa.v.vaaaa#D.va6a6a6#Ya8a8aW#J#P#Pae#X`w`gat#Ra6a6.p#D#D.p.p.p.p#D#D`Ua6a6a6a6a6a6a6a6a6#Ya8a8a8a8aYaXamamam`g#Ra6a6a6a6a6#YaX`w`w`w`w`w`w`wama6a6a6a6a6a6#oa8a8a8aYaX`wamamama6a6a6a6#R#R#R#R#RaYaXaXamamam`hama6a6a6#Y#Y#Y#Y#Y#Y#Y#Y#Y#Y#Y#Y#Y#Y.p#D#YaXa8aXaX`w`w#R#w.p.p.p.p.p",
"a6a6a6a6a6`h`h`h`h`ha6a6a6a6a6a6a6.p.1aXaWaYaW`g`g`waWaYa8`y.q.k`J`J#Y#x`J#xa8aY`t#r.e.k`JaG.Y.ea6a6a6a6a6a6#Y#Ya6#YaYaYamar#X#Xa6.u#v`waXaY`g#Y#Y#Y`gaYa8#x.ka6a6`g`g`g`g`g#RaXaX#v#R#w.pa6a6a6a6a6`J`J`J`J`Ja6a6a6`J`J`J`Ja6a6a6a6.j.j.j.k.ja6a6#P#P#P#P#Pa6a6#Ya8#Y#Y#Y#4`g#Y`g#Y#Y#Y#Y#Y#Ya6#Pa8#p#pa8#Pa8#p#p#p#p#p#paY#Pa6`K`Ka6a6a6a6a6a6`j`ra1a0aO`o`Ha6#Ya8#r#r`ya8a8a8a8aYaY.X#w#Ra6a6a6#Xa8a8aYaYaX`waA#Ra6a6a6a6a6a6a6a6a6a6atatatat.U`R.s.t.t.t`#a6a6a6a6.v#D#D#D#D#D#D.3.3.v.v.v.va6#Xa8a8a8am#J#Q#P#J`w`waA#Ra6a6.p#D.v#x#xaa#x.p.p.p.p.p`Ua6a6a6a6a6a6#Ya8a8a8aYaXaX`waA#R`g#Ra6`K`K`R`R.m.U#4azazazazazaXama6a6a6a6a6a6#RaXaXaXaXaXaXaXaXama6a6a6a6a6a6#YaXaXaXaXaXaXaXam`hama6a6a6#Ya8a8a8a8a8aXaXaXaXaXaXaX#R.p#D#YaXaXaX`waT.p.p`x`xa8a8aa.p",
"a6a6a6a6a6`h`h`h`h`h`ha6a6a6a6a6a6.q`1aX`waXa8`g#4`waXa8a8a8.1.j`J`J#Ya8#x`JaYaYaGaG.e`J.d.M.e..a6a6a6a6a6#Y#YaV#Y#YaYaYamamam#Ra6.q.waX`w`g`g`w`w`g#YaUa8aZ.p.ka6#Ya8a8a8aX#R#RaX`##R#x.2.2.v.pa6a6a6`J`J`J`J`Ja6`J`J`J`Ja6a6a6a6.j.q.j.j.k.k.j#P#P#Pa6#P#Pa6a6#YaY#Ya8`g`g`w`w`g`g`gaY`e#x#Ra6#Pa8a8a8a8#PaYaYaYaYaYaYaYaY#Pa6`K`Ka6a6a6a6a6a6`n`q`r.b.j.i`Fa6#Xa8#Y#Y#Y#Y#Y#Y#Y#Y#Y#Y#Y#Y#Y#Ya6#Xa8#Y#Y#Y#Y#Y#Y#Y#Y#Y#Y#Y#Y#Ya6atatatatatazaz`R.m#n.U.t.ma6a6a6a6#Y#Y#Y#Y#Y#Y#Y#Y#Y#YaZaaa8.va6#Xa8a8aYaY`w`gae#P`g`w`w#Ra6a6.p.3.paa#D#Daaaaaa#Daa.v`U.p.pa6a6a6a6#XaXazazazazazaz`w#R`g#Ra6`K`K`K`#`R.m`#.UaXaXaXaXaXama6a6a6a6a6a6#RaX`gazazazazazaXama6a6a6a6a6a6#YaXazazazazazaXam`hama6a6a6#Xa8a8a8a8a8a8a8aYaY`e.jaX#R.p#D#YaW.p.p.p.paZ.m.m#xaZaZ.p`h",
"a6a6a6a6a6`h`h`h`h`h`h`ha6a6a6a6a6.q.p`faWaXa8`w#X`gaWaXa8a8a#.oa6a6#Ya8a8aYaYaX.R`u.ea2#Ra6a6a6a6a6a6a6a6#YaXa8a8a8aYaXaX`waA#Ra6.k.v`x`w#Y`w`w`w`w`g#Ya8a8#B.pa6#Ya8a8aXaX`g#Y`K.6`##x#xaZ.v.pa6a6a6a6`J`J`J`J`J`J`J`Ja6a6a6a6a6.j.q.ja6.j.k.j#P#P#Pa6#P#Pa6a6#XaY#YaX`g`w`waFaF`w#YaXaQ.j#Ra6#Pa8#p#pa8#PaX#p#p#p#p#p#paY#Pa6`R`#a6a6.ma6a6a6.a`o.j.q.q.p`Ha6#XaX#Ya8a8a8aXaXaXaXaWaVaVaVaU#Ra6#XaY#Ya8a8a8a8a8a8a8a8`e#xaT#Ra6atatatazazazaz.mazaz.m.mata6a6#3#3#Ya8a8a8a8a8aX.Y.Y#R#D#xaZ.va6#oaYaYaYaX`w#J#P#i`w`w`w#Ra6a6.p.3.p#D#D#D#D#D.3.2.2#w#x`x.pa6a6a6a6#XaX`w`w`w`w`w`w`w#R`g#Ra6a6a6a6a6#X.m.s`R.UazazazaXama6a6a6a6a6a6#RaXaXaXaXaXaXaXaXama6a6a6a6a6a6#YaXaXaXaXaXaXaXam`hama6a6a6#oa8a8a8a8a8a8aYaYaX#5aOaX#R.p#x#X#x`xaZaaaaaa.m.s`#`faa.p`h",
"a6a6a6a6a6`h`h`h`h`h`h`h`ha6a6a6a6a6.Xay`waAaXaW`g#4`waWaXa8a8.ja6a6#Ya8aYaYaXa1`eaG`J.e#Ra6a6a6a6a6a6a6a6#YaXaXaXaXaXaXaXaXaA#Ra6.3#qay`w#Y`w`waFaXaF#YaYa8aX.j.k#Ya8aXaX`w`w`K.u.u.m`K.2`x.v`Ua6a6a6a6a6a6`J`J`J`J`Ja6a6a6a6a6a6.j.j.j.j.j.k.j#P#Pa6a6#P#Pa6a6#XaX#YaV#Y`gaFaXaYaF#YaWaWaW#Ra6#Pa8a8a8a8#PaXaXaXaXaXaXaXaX#Pa6`#`R`Ka6.m.m`Ka6`m`n.j.j.j.j`Ga6#XaX#Ya8#x#r#xa8a8a8a8aYaW.X#x#Ra6#XaY#Xa8a8a8a8a8a8aYaYaQ.jaT#Ra6ata8atat`gaAaA.mataz.mazatata6a6a6#Ya8a8a8a8aXaX.c.X#R#D#x#x`Ua6#RaYaYaXaX#Q#P#J`g`w`w`w#Ra6a6.p.3.p#x.3.3.v.2#xaZaa#x#x#x.pa6a6a6a6#XaX`g`g`g`gazaz`w#R`g#Ra6a6a6a6a6#X#v.m.s`##3aXaXaXama6a6a6a6a6a6#RaXazazazazazazaXama6a6a6a6a6a6#Y`wazazazazazaXam`hama6a6a6#Ra8a8a8aXaXaWaWaWaWaW`w`w#R.p.3.3aa#C`L`L`L`L`L.t.s`#.n`h`h",
"a6a6a6a6a6`h`h`h`h`ha6a6a6a6a6a6a6a6.k.R`g`g`g`w`g#X`g`wa8aY#r.ka6a6#YaYaYaXaX`w`w`w#5#5#Ra6a6a6a6a6a6a6a6#Y`wazazazazazazazaA#Ra6a6.k#Y`g#Y`gaFaYa8`w#YaYa8`x.ka6#YaXaX`w`w`w#Y`L.t`L#D#x.3.va6a6a6a6a6a6`I`I`I`I`I`Ia6a6a6a6a6a6.j.j.j.j.j.k.ja6a6a6a6`Qa6a6a6#o`w#YaX`g`gaFaYa8`w#YaVaW`w#Ra6#Pa8#p#pa8#P`w#p#p#p#p#p#p`w#Pa6`K`#`R.s.t.1.m`E`j`j`H.d.d`H`Ga6#XaX#Ya8#x#r#r#xa8a8aYaXaV.c.j#Ra6#oaX#XaXa8a8a8a8aWaRaTaW`waT#Ra6ata8aX`wataWaX.V`w`gazazatata6#3#3#Ya8a8#p#p#paVaW`w#R#D#x.pa6a6#RaXaXaXaX#J#P`g`w`w`w`w#Ra6a6.p.3.p.3.vaaaaaaaa#D#D#x#x.p`Ua6a6a6a6#XaU#Y`g`w`w`w`w`w#R`g#Ra6a6a6a6a6#X`w.m.s.s.U`g`gaXama6a6a6a6a6a6aS#R#XaXaXaXaXaXaXama6a6a6a6a6a6#Y#X#RaXaXaXaXaXam`hama6a6a6#Ra8a8aXa0#p#p#p#p#paV`w`w#R.p.3#xaa.2`L.t.t.s.t.t.s`R`#`K`h",
"a6a6a6a6a6`h`ha6`h`ha6a6a6a6a6a6a6a6.q.k`g`w`g`w`w#Xaz`w#6.Y.ka6a6a6#YaXaXaX`w`w`w`w`w`w#Ra6a6a6a6a6a6a6a6#Y`w`w`w`w`w`w`w`waA#Ra6a6.q.j`e#4#4`waF`w#Y`ga8#x.ka6a6#YaX`w`w`w`w#Y`R.m.n#D.3.p`Ua6a6a6a6a6`I`I`I`I`I`I`I`Ia6a6a6a6a6.j.k.ja6.j`P.ja6`Q`Q`Q`Q`Q`Q`Q#o`w#Y`x#Y`g`waF`w`g#4aU`w`w#Ra6#Pa8a8a8a8#P`w`w`w`w`w`w`w`w#Pa6a6`K`#.s.t.t.m`K`h`i`k`H`.`7aea6#XaW#YaXa8a8a8a8a8aYaXaXaVaS#Y#Ra6#R`w#XaXa8a8aTaQ.c.j`HaW`w`w#Ra6atat`g`w`watatatat`w`gat`gata6a6a6#Ya8aXaVaUaUaU`w`w#R#D.3`Ua6a6#RaXaXaX`w#J#J`w`w`w`w`g#Ra6a6.p#x.p.3#x#D#D#D#D#D#D#x.3.pa6a6a6a6a6#R#R#Y#R`g`g`g`g`w#R#R#Ra6a6a6a6a6#X`w.m.t.s.maXaXaXama6a6a6a6aN#R#RaA#R`g`w`g`g`g#o.PaNa6a6a6a6#R#R#Y#Y#YaXaXaXaXam#Rama6a6a6#RaU#oa0#oaUaUaUaUaUaR#oaQ#R.p.3`x#D.2`L.t.t.t.t.s`R`Q`#`K`K",
"a6a6a6a6a6`ha6a6a6`h`ha6a6a6a6a6a6a6a6.q.Xa0#Y#4`g#Y#X#q.ka6a6a6a6a6#YaWaX`w`w`w`w`w`w`g#Ra6a6a6a6a6a6a6a6#Y`w`g`g`g`gazazazaA#Ra6a6a6.q.q.X#Y#Y#Y#Y#X#5.Y.ka6a6a6#X`w`w#o.g.f`K`#.n#x#D.3.pa6a6a6a6`I`I`I`I`I`Ia6`I`I`I`Ia6a6a6a6.k.k.ja6.j`P.j.j`Q`Q`Q`Q`Q`Q`Q#oaAaR.q.R`g#4#Y#4`gaU`w`w`w#Ra6#PaY#p#paY#P`w#p#p#p#p#p#p`g#Pa6a6a6`K`K`R.m`Ka6ae#Q#QaOaP#X#Qae#XaV#YaXa8a8a8#p#p#p#p#paW`w`w#Ra6#R`w#XaW`w#X#X`e.S.d.c`w`w`w#Ra6a6a6at`g`w`gata8`watat`g`gata6#3#3#YaYaXaWaW`w`w`w`g#R.p`Ua6a6a6#RaWaX`w`w`g`g`w`w`w`g`g#Ra6a6.p`x.p.waa#D#D#D#D#D#D.3.p`Ua6a6a6aNaN#RaR`g#X#X#X`w`w#X#R#Y#Ra6a6a6a6`#`#`#.t.t.t.m`#`#amama6a6a6aNaN.PaR`g#X#R#R#X#4#R#YamaNa6a6aNaNaNaS`gaz#R#R#Xaz#X#Ram#oa6a6aN#X.Q#5aXaRaPa0aS`wa0#R`g#R#R.p.3aa#x.2`#`#`#`#`#`R`Q`#`Ka6a6",
"a6a6a6a6a6a6a6a6a6`h`ha6a6a6a6a6a6a6a6a6a6.q.k.S.R.j.k.ka6a6a6a6a6a6#XaW`w`w`w`w`w`w`g`g#Ra6a6a6a6a6a6a6a6#X`w`w`w`w`w`w`w`waA#Ra6a6.3.q.Sa0.X#kaQ#k.S.ka6a6a6a6a6#X`w`waA#4#o.U.2.3.w.v.p.pa6a6a6`I`I`I`I`Ia6a6a6a6`I`I`I`Ia6a6a6.j.k.k.j.j`J.k.ja6`Q`Q`Q`Q`Q`Q#o#w.q.R#YaWaWaW`w`w`w`w`w`g#Ra6#Pa8a8aYaY#P`w`w`w`w`w`w`g`g#Pa6a6a6a6a6.m`Ka6a6#KaJas#X`gasaJ#K#XaU#XaWa8a8aYaVaVaUaUaU`w`w`w#Ra6#R`g#X#W`gaX`wa1aQa0aT`w`w`g#Ra6a6a6a6atat`gataX`waA`g`g`gata6a6a6#Y#R#R#R#R#R#R#R#R#R`Ua6a6a6a6#RaW`w`w`g#P#P#Y`w`g`g`g#Ra6a6.p`U.p.vaa#x#x#x#x.3.v.p.pa6a6a6aN#RaS#o#Y`g#XaQaR#R#R#Y`g#R#Ra6a6a6a6a6`K.t.6.t.t.t`R.ga6a6a6a6aNaPaV#Y#R#o#R`eaX#o#R`g`gamaNa6a6#R`e`e#R#Y#Y#RaW#YaN#Yama6a6a6aN#Ra0a0aPaRaS#R#5#o.Qa0`w`g#4#R.p#x#x.3.3.3.3.v.p`L`Q`K`Ka6a6a6",
"a6a6a6a6a6a6a6a6a6a6`h`ha6a6a6a6a6a6a6a6a6a6a6a6a6a6a6a6a6a6a6a6a6a6#XaW`w`w`w`w`w`g`g`g#Ra6a6a6a6a6a6a6a6#X`wazazazazazazazaA#Ra6a6.q.Sa0#Ya6a6.k`J.ka6a6a6a6a6a6#R#R#R#R#R#R#R`U`U`Ua6a6a6a6a6a6`I`I`I`Ia6a6a6a6a6a6`I`I`I`I`Ia6.j.j.j.j.j.j.ja6`Q`Q`Q`Q`Q`Qa6.3.q.R#Y#R#R#R#R#R#R#R#R#R#R#Ra6#Pa8a8aYaX#P`w`w`w`w`w`g`gaz#Pa6a6a6a6a6a6a6a6a6#KalaJaJ#X#Qalae#X#R#XaUaXaXaXaWaWaW`w`w`w`w`g#R#YaQ.Q`gaX`g#X#W`g`w`w`w`w`g`g#Ra6a6a6a6a6a6atatat`gata6a6a6a6a6a6a6a6`U.2`U`U`U`Ua6a6a6a6a6a6a6a6#R`w`w`w`g#J#J`g`g`g`gaz#Ra6a6a6a6.p#x.3.w.v`U`U`U`U.p`Ua6a6a6aN#5aX`waN#RaNaX`w`g#R#R#R#Ra6a6a6a6a6a6a6`#.t.6.t.m`Ka6a6a6a6a6aNaT`w`w#R#RaNaX`w`g.Qamamama6a6a6a0aX`w#X.P.PaT`w`w#Ramama6a6a6aNa0aX`w#RaNaNaTaX`w.Q#R#R#R#R#R.p`x.w.p`U`U`U`Ua6`K`K`Ka6a6a6a6",
"a6a6a6a6a6a6a6a6a6a6`h`ha6a6a6a6a6a6a6a6a6a6a6a6a6a6a6a6a6a6a6a6a6a6#o`w`w`w`w`w`g`g`gaz#Ra6a6a6a6a6a6a6a6#oaA`w`waAaAaAaAaA`g#Ra6a6a1a0#Ya6a6a6a6a6a6a6a6a6a6a6a6a6.p.p.p`U`Ua6a6a6a6a6a6a6a6a6a6`I`I`Ia6a6a6a6a6a6a6a6a6`I`I`Ia6a6a6a6a6a6a6a6a6`Q`Q`Q`Q`Q`Qa6.W.Ra0#Ya6a6a6a6a6a6a6a6a6a6a6a6#P#P#P#P#P#P#P#P#P#P#P#P#P#P#Pa6a6a6a6a6a6a6a6a6ae#K#Q#Qae#Kaea6a6a6#XaTaXaXaWaW`w`w`w`w`w`g`g#Ra6`N.X#W#W#W#R#R#R#R#R#R#R#R#R#Ra6a6a6a6a6a6a6a6a6a6a6a6a6a6a6a6a6a6a6`Ua6a6a6a6a6a6a6a6a6a6a6a6a6#R`w`w`w`w`g`g`g`g`gazaz#Ra6a6a6a6.p.p.p`U`U`Ua6a6a6a6a6a6a6a6aN`e`w`gaNa6aNaT`w#YaNa6a6a6a6a6a6a6a6a6a6`K.m.6.t`Ka6a6a6a6a6a6aNaQ`w#YaNa6aN#Y`g#oaNa6a6a6a6a6a6#R`w`g#RaNaN#o`w#4aNa6a6a6a6a6aN#o`w`g#RaNaN#Y`w`gaNa6a6a6a6a6.p.p`Ua6a6a6a6a6a6`K`Ka6a6a6a6a6",
"a6a6a6a6a6a6a6a6a6a6a6a6a6a6a6a6a6a6a6a6a6a6a6a6a6a6a6a6a6a6a6a6a6a6#R#R#R#R#R#R#R#R#R#R#Ra6a6a6a6a6a6a6a6#R#R#R#R#R#R#R#R#R#R#Ra6a6a6a6a6a6a6a6a6a6a6a6a6a6a6a6a6a6a6a6a6a6a6a6a6a6a6a6a6a6a6a6a6a6a6a6a6a6a6a6a6a6a6a6a6a6`I`Ia6a6a6a6a6a6a6a6a6a6a6`Q`Qa6a6a6.QaQ#Ya6a6a6a6a6a6a6a6a6a6a6a6a6a6a6a6a6a6a6a6a6a6a6a6a6a6a6a6a6a6a6a6a6a6a6a6a6a6a6a6a6a6a6a6a6a6a6#X#R#R#R#R#R#R#R#R#R#R#R#R#Ra6`k`NaNa6a6a6a6a6a6a6a6a6a6a6a6a6a6a6a6a6a6a6a6a6a6a6a6a6a6a6a6a6a6a6a6a6a6a6a6a6a6a6a6a6a6a6a6a6#R#R#R#R#R#R#R#R#R#R#R#R#Ra6a6a6a6a6a6a6a6a6a6a6a6a6a6a6a6a6a6aNaN#R#RaNa6aN#R#RaNaNa6a6a6a6a6a6a6a6a6a6a6`K.m`#a6a6a6a6a6a6a6a6aNaNaNaNa6aNaNaNaNa6a6a6a6a6a6a6aNaNaNaNa6a6aNaNaNaNa6a6a6a6a6a6aN#R#RaNa6aNaN#RaNaNa6a6a6a6a6a6a6a6a6a6a6a6a6a6a6a6a6a6a6a6a6"
};
